<?xml version="1.0" encoding="UTF-8" standalone="no"?>
<svg
   width="555.11993"
   height="663.69397"
   viewBox="0 0 555.11993 663.69399"
   version="1.1"
   id="svg121"
   xml:space="preserve"
   xmlns="http://www.w3.org/2000/svg"
   xmlns:svg="http://www.w3.org/2000/svg"
   xmlns:rdf="http://www.w3.org/1999/02/22-rdf-syntax-ns#"
   xmlns:cc="http://creativecommons.org/ns#"
   xmlns:dc="http://purl.org/dc/elements/1.1/"><defs
     id="defs5"><clipPath
       id="a"
       transform="translate(-0.84 -0.67)"><rect
         x="147.92"
         y="163.83"
         width="52.5"
         height="18.17"
         rx="9.0799999"
         ry="9.0799999"
         style="fill:none"
         id="rect2" /></clipPath><linearGradient
       id="a-3"
       x1="40.577999"
       x2="549.10101"
       y1="662.90997"
       y2="108.676"
       gradientTransform="matrix(0.26750887,0,0,-0.26750887,181.48209,188.78791)"
       gradientUnits="userSpaceOnUse"><stop
         offset="0"
         stop-color="#a677b4"
         id="stop320" /><stop
         offset=".363"
         stop-color="#f0515a"
         id="stop322" /><stop
         offset="1"
         stop-color="#2b338c"
         id="stop324" /></linearGradient></defs><title
     id="title7">robot</title><polygon
     points="277.3,274.17 263.97,275.17 234.97,257 238.3,234.33 266.3,252.33 286.47,218.33 301.3,235.33 "
     style="fill:#aedfe4"
     id="polygon9"
     transform="translate(104.48743,253.73401)" /><rect
     x="257.64743"
     y="450.134"
     width="40"
     height="16.5"
     style="fill:#aedfe4"
     id="rect11" /><rect
     x="238.89743"
     y="557.40399"
     width="77.5"
     height="16.5"
     style="fill:#aedfe4"
     id="rect13" /><polygon
     points="183.35,52.77 162.73,52.77 173.16,10.15 "
     style="fill:#aedfe4"
     id="polygon15"
     transform="translate(104.48743,253.73401)" /><polygon
     points="69.33,274.17 82.66,275.17 111.66,257 108.33,234.33 80.33,252.33 60.16,218.33 45.33,235.33 "
     style="fill:#aedfe4"
     id="polygon17"
     transform="translate(104.48743,253.73401)" /><path
     d="m 138.14743,455.06401 c 0,0 -8.67,5.33 -14.67,-14 -6.62,-21.35 -20.66,-5.86 -18.83,9.65 1.83,15.51 14.5,20 25.83,16.52 11.33,-3.48 7.67,-12.17 7.67,-12.17 z"
     style="fill:#ef4236"
     id="path19" /><path
     d="m 135.97743,420.39401 a 8.47,8.47 0 0 1 8.33,-5.67 c 6.67,0 22.83,7.5 22.83,21 0,13.5 -12.49,17.51 -12.49,17.51 h -10.83 c 0,0 7.33,-3.67 2,-14.17 -5.33,-10.5 -9.67,-14.5 -9.83,-17.83"
     style="fill:#ef4236"
     id="path21" /><path
     d="m 127.89743,479.01401 c -2.83,-10 1.8,-21.24 11.73,-26.76 9.93,-5.52 22,-3.52 29,4.21 z"
     style="fill:#fdba63"
     id="path23" /><rect
     x="211.64745"
     y="464.064"
     width="132"
     height="98.669998"
     rx="14.67"
     ry="14.67"
     style="fill:#08b0d8"
     id="rect25" /><g
     id="g31"
     transform="translate(104.48743,253.73401)"><rect
       x="125.16"
       y="226.58"
       width="96"
       height="66.169998"
       rx="10.17"
       ry="10.17"
       style="fill:#fdbb65"
       id="rect27" /><path
       d="m 211.83,229.25 a 8.18,8.18 0 0 1 8.17,8.17 v 45.83 a 8.18,8.18 0 0 1 -8.17,8.17 H 136.17 A 8.18,8.18 0 0 1 128,283.25 v -45.83 a 8.18,8.18 0 0 1 8.17,-8.17 h 75.67 m 0,-4 H 136.17 A 12.17,12.17 0 0 0 124,237.42 v 45.83 a 12.17,12.17 0 0 0 12.17,12.17 h 75.67 A 12.17,12.17 0 0 0 224,283.25 v -45.83 a 12.17,12.17 0 0 0 -12.17,-12.17 z"
       transform="translate(-0.84,-0.67)"
       style="fill:#aedfe4"
       id="path29" /></g><rect
     x="176.64745"
     y="304.064"
     width="202"
     height="151"
     rx="20.67"
     ry="20.67"
     style="fill:#08b0d8"
     id="rect33" /><rect
     x="192.96744"
     y="319.73401"
     width="169.37"
     height="118.71"
     rx="16.780001"
     ry="16.780001"
     style="fill:#aedfe4"
     id="rect35" /><path
     d="m 170.86743,450.71401 a 27.34,27.34 0 0 1 -48.13,25.94 z"
     style="fill:#08b0d8"
     id="path37" /><path
     d="m 184.64743,507.48401 2.46,21.42 c 0,0 -1.92,2 -7.29,2 -5.37,0 -6,-3 -6,-3 z"
     style="fill:#242020"
     id="path39" /><circle
     cx="151.28743"
     cy="472.694"
     r="4.0599999"
     style="fill:#aedfe4"
     id="circle41" /><circle
     cx="189.66743"
     cy="441.17401"
     r="4.0599999"
     style="fill:#aedfe4"
     id="circle43" /><circle
     cx="364.58743"
     cy="441.17401"
     r="4.0599999"
     style="fill:#aedfe4"
     id="circle45" /><circle
     cx="189.66743"
     cy="318.17401"
     r="4.0599999"
     style="fill:#aedfe4"
     id="circle47" /><circle
     cx="364.58743"
     cy="318.17401"
     r="4.0599999"
     style="fill:#aedfe4"
     id="circle49" /><circle
     cx="223.58743"
     cy="476.754"
     r="4.0599999"
     style="fill:#aedfe4"
     id="circle51" /><circle
     cx="223.58743"
     cy="551.88397"
     r="4.0599999"
     style="fill:#aedfe4"
     id="circle53" /><circle
     cx="332.46744"
     cy="476.754"
     r="4.0599999"
     style="fill:#aedfe4"
     id="circle55" /><circle
     cx="332.46744"
     cy="551.88397"
     r="4.0599999"
     style="fill:#aedfe4"
     id="circle57" /><path
     d="m 209.14743,477.23401 v 31 l -15.42,-21.09 a 19.14,19.14 0 0 1 15.42,-9.91 z"
     style="fill:#08b0d8"
     id="path59" /><path
     d="m 417.44743,455.06401 c 0,0 8.67,5.33 14.67,-14 6.62,-21.35 20.67,-5.86 18.83,9.65 -1.84,15.51 -14.5,20 -25.83,16.52 -11.33,-3.48 -7.67,-12.17 -7.67,-12.17 z"
     style="fill:#ef4236"
     id="path61" /><path
     d="m 419.64743,420.39401 a 8.47,8.47 0 0 0 -8.33,-5.67 c -6.67,0 -22.83,7.5 -22.83,21 0,13.5 12.5,17.5 12.5,17.5 h 10.83 c 0,0 -7.33,-3.67 -2,-14.17 5.33,-10.5 9.67,-14.5 9.83,-17.83"
     style="fill:#ef4236"
     id="path63" /><path
     d="m 427.64743,479.01401 c 2.83,-10 -1.8,-21.24 -11.73,-26.76 -9.93,-5.52 -22,-3.52 -29,4.21 z"
     style="fill:#fdba63"
     id="path65" /><path
     d="m 384.72743,450.71401 a 27.34,27.34 0 0 0 48.13,25.94 z"
     style="fill:#08b0d8"
     id="path67" /><path
     d="m 370.90743,507.48401 -2.46,21.42 c 0,0 1.92,2 7.29,2 5.37,0 6,-3 6,-3 z"
     style="fill:#242020"
     id="path69" /><circle
     cx="404.31741"
     cy="472.694"
     r="4.0599999"
     style="fill:#aedfe4"
     id="circle71" /><path
     d="m 346.44743,477.23401 v 31 l 15.42,-21.08 a 19.14,19.14 0 0 0 -15.42,-9.92 z"
     style="fill:#08b0d8"
     id="path73" /><rect
     x="218.64745"
     y="615.69397"
     width="118"
     height="9.5"
     rx="4.75"
     ry="4.75"
     style="fill:#fdbb65"
     id="rect75" /><rect
     x="235.89743"
     y="634.94397"
     width="83.5"
     height="9.5"
     rx="4.75"
     ry="4.75"
     style="fill:#fdbb65"
     id="rect77" /><rect
     x="256.39743"
     y="654.19397"
     width="42.5"
     height="9.5"
     rx="4.75"
     ry="4.75"
     style="fill:#fdbb65"
     id="rect79" /><path
     d="m 239.89743,607.48401 a 56,56 0 0 1 -18.33,-38.42 h 112.16 a 56,56 0 0 1 -18.33,38.43 z"
     style="fill:#08b0d8"
     id="path81" /><g
     id="g89"
     transform="translate(104.48743,253.73401)"><circle
       cx="132.64999"
       cy="123.97"
       r="15.51"
       id="circle83" /><path
       d="M 133.49,109.12 A 15.51,15.51 0 1 1 118,124.64 15.51,15.51 0 0 1 133.51,109.13 m 0,-23 A 38.51,38.51 0 1 0 172,124.64 38.55,38.55 0 0 0 133.49,86.13 Z"
       transform="translate(-0.84,-0.67)"
       style="fill:#08b0d8"
       id="path85" /><path
       d="M 133.49,109.12 A 15.51,15.51 0 1 1 118,124.64 15.51,15.51 0 0 1 133.51,109.13 m 0,-14 A 29.51,29.51 0 1 0 163,124.64 29.54,29.54 0 0 0 133.49,95.13 Z"
       transform="translate(-0.84,-0.67)"
       style="fill:#f1f1f2"
       id="path87" /></g><g
     id="g97"
     transform="translate(104.48743,253.73401)"><circle
       cx="214.64999"
       cy="123.97"
       r="15.51"
       id="circle91" /><path
       d="M 215.49,109.12 A 15.51,15.51 0 1 1 200,124.64 15.51,15.51 0 0 1 215.51,109.13 m 0,-23 A 38.51,38.51 0 1 0 254,124.64 38.55,38.55 0 0 0 215.49,86.13 Z"
       transform="translate(-0.84,-0.67)"
       style="fill:#08b0d8"
       id="path93" /><path
       d="M 215.49,109.12 A 15.51,15.51 0 1 1 200,124.64 15.51,15.51 0 0 1 215.51,109.13 m 0,-14 A 29.51,29.51 0 1 0 245,124.64 29.54,29.54 0 0 0 215.49,95.13 Z"
       transform="translate(-0.84,-0.67)"
       style="fill:#f1f1f2"
       id="path95" /></g><rect
     x="251.56744"
     y="416.90399"
     width="52.5"
     height="18.17"
     rx="9.0799999"
     ry="9.0799999"
     style="fill:#fdbb65"
     id="rect99" /><g
     clip-path="url(#a)"
     id="g113"
     transform="translate(104.48743,253.73401)"><g
       id="g111"><rect
         x="153.23"
         y="162.14999"
         width="3.1199999"
         height="20.559999"
         style="fill:#ef4236"
         id="rect101" /><rect
         x="162.28999"
         y="162.14999"
         width="3.1300001"
         height="20.559999"
         style="fill:#ef4236"
         id="rect103" /><rect
         x="171.35001"
         y="162.14999"
         width="3.1199999"
         height="20.559999"
         style="fill:#ef4236"
         id="rect105" /><rect
         x="180.41"
         y="162.14999"
         width="3.1300001"
         height="20.559999"
         style="fill:#ef4236"
         id="rect107" /><rect
         x="189.48"
         y="162.14999"
         width="3.1199999"
         height="20.559999"
         style="fill:#ef4236"
         id="rect109" /></g></g><circle
     cx="277.64743"
     cy="268.40399"
     r="14.67"
     style="fill:#ef4236"
     id="circle115" /><polyline
     points="126.33 261.63 136 261.63 147.98 242.96 158.69 261.63 165.84 249.01 173.25 261.63 186.5 261.63 193.57 275.6 205.31 250.41 211.08 261.63 219.5 261.63"
     style="fill:none;stroke:#ef4236;stroke-width:4px;stroke-linecap:round;stroke-linejoin:round"
     id="polyline117"
     transform="translate(104.48743,253.73401)" /><path
     d="m 315.47743,482.31401 a 8.18,8.18 0 0 1 8.17,8.17 v 45.83 a 8.18,8.18 0 0 1 -8.17,8.17 h -75.66 a 8.18,8.18 0 0 1 -8.17,-8.17 v -45.83 a 8.18,8.18 0 0 1 8.17,-8.17 h 75.67 m 0,-4 h -75.67 a 12.17,12.17 0 0 0 -12.17,12.17 v 45.83 a 12.17,12.17 0 0 0 12.17,12.17 h 75.67 a 12.17,12.17 0 0 0 12.16,-12.17 v -45.83 a 12.17,12.17 0 0 0 -12.17,-12.17 z"
     style="fill:#aedfe4"
     id="path119" /><g
     id="g297"
     transform="matrix(2.0200414,0,0,2.0200414,1.043351e-8,58.387325)"><path
       d="m 79.797436,18.8 c -0.5,-1.6 -1.7,-2.9 -3.2,-3.7 l -30.5,-14.6 c -0.8,-0.4 -1.7,-0.5 -2.5,-0.5 -0.8,0 -1.7,0 -2.5,0.2 l -30.5,14.7 c -1.5000002,0.7 -2.6000002,2 -3.0000002,3.7 L 0.09743584,51.5 c -0.3,1.7 0.1,3.4 1.09999996,4.8 L 22.297436,82.4 c 1.2,1.2 2.9,2 4.6,2.1 h 33.6 c 1.8,0.2 3.5,-0.6 4.6,-2.1 l 21.1,-26.1 c 1,-1.4 1.4,-3.1 1.2,-4.8 z"
       id="path10349"
       style="fill:#326de6" /><path
       d="m 75.097436,50.2 v 0 c -0.1,0 -0.2,0 -0.2,-0.1 0,-0.1 -0.2,-0.1 -0.4,-0.1 -0.4,-0.1 -0.8,-0.1 -1.2,-0.1 -0.2,0 -0.4,0 -0.6,-0.1 h -0.1 c -1.1,-0.1 -2.3,-0.3 -3.4,-0.6 -0.3,-0.1 -0.6,-0.4 -0.7,-0.7 0.1,0 0,0 0,0 v 0 l -0.8,-0.2 c 0.4,-2.9 0.2,-5.9 -0.4,-8.8 -0.7,-2.9 -1.9,-5.7 -3.5,-8.2 l 0.6,-0.6 v 0 -0.1 c 0,-0.3 0.1,-0.7 0.3,-0.9 0.9,-0.8 1.8,-1.4 2.8,-2 v 0 c 0.2,-0.1 0.4,-0.2 0.6,-0.3 0.4,-0.2 0.7,-0.4 1.1,-0.6 0.1,-0.1 0.2,-0.1 0.3,-0.2 0.1,-0.1 0,-0.1 0,-0.2 v 0 c 0.9,-0.7 1.1,-1.9 0.4,-2.8 -0.3,-0.4 -0.9,-0.7 -1.4,-0.7 -0.5,0 -1,0.2 -1.4,0.5 v 0 l -0.1,0.1 c -0.1,0.1 -0.2,0.2 -0.3,0.2 -0.3,0.3 -0.6,0.6 -0.8,0.9 -0.1,0.2 -0.3,0.3 -0.4,0.4 v 0 c -0.7,0.8 -1.6,1.6 -2.5,2.2 -0.2,0.1 -0.4,0.2 -0.6,0.2 -0.1,0 -0.3,0 -0.4,-0.1 h -0.1 l -0.8,0.5 c -0.8,-0.8 -1.7,-1.6 -2.5,-2.4 -3.7,-2.9 -8.3,-4.7 -13,-5.2 l -0.1,-0.8 v 0 0.1 c -0.3,-0.2 -0.4,-0.5 -0.5,-0.8 0,-1.1 0,-2.2 0.2,-3.4 v -0.1 c 0,-0.2 0.1,-0.4 0.1,-0.6 0.1,-0.4 0.1,-0.8 0.2,-1.2 v -0.6 0 c 0.1,-1 -0.7,-2 -1.7,-2.1 -0.6,-0.1 -1.2,0.2 -1.7,0.7 -0.4,0.4 -0.6,0.9 -0.6,1.4 v 0 0.5 c 0,0.4 0.1,0.8 0.2,1.2 0.1,0.2 0.1,0.4 0.1,0.6 v 0.1 c 0.2,1.1 0.2,2.2 0.2,3.4 -0.1,0.3 -0.2,0.6 -0.5,0.8 v 0.2 0 l -0.1,0.8 c -1.1,0.1 -2.2,0.3 -3.4,0.5 -4.7,1 -9,3.5 -12.3,7 l -0.6,-0.4 h -0.1 c -0.1,0 -0.2,0.1 -0.4,0.1 -0.2,0 -0.4,-0.1 -0.6,-0.2 -0.9,-0.7 -1.8,-1.5 -2.5,-2.3 v 0 c -0.1,-0.2 -0.3,-0.3 -0.4,-0.4 -0.3,-0.3 -0.5,-0.6 -0.8,-0.9 -0.1,-0.1 -0.2,-0.1 -0.3,-0.2 -0.1,-0.1 -0.1,-0.1 -0.1,-0.1 v 0 c -0.4,-0.3 -0.9,-0.5 -1.4,-0.5 -0.6,0 -1.1,0.2 -1.4,0.7 -0.6,0.9 -0.4,2.1 0.4,2.8 v 0 c 0.1,0 0.1,0.1 0.1,0.1 0,0 0.2,0.2 0.3,0.2 0.3,0.2 0.7,0.4 1.1,0.6 0.2,0.1 0.4,0.2 0.6,0.3 v 0 c 1,0.6 2,1.2 2.8,2 0.2,0.2 0.4,0.6 0.3,0.9 v -0.1 0 l 0.6,0.6 c -0.1,0.2 -0.2,0.3 -0.3,0.5 -3.1,4.9 -4.4,10.7 -3.5,16.4 l -0.8,0.2 v 0 c 0,0.1 -0.1,0.1 -0.1,0.1 -0.1,0.3 -0.4,0.5 -0.7,0.7 -1.1,0.3 -2.2,0.5 -3.4,0.6 v 0 c -0.2,0 -0.4,0 -0.6,0.1 -0.4,0 -0.8,0.1 -1.2,0.1 -0.1,0 -0.2,0.1 -0.4,0.1 -0.1,0 -0.1,0 -0.2,0.1 v 0 c -1.1,0.2 -1.8,1.2 -1.6,2.3 0,0 0,0 0,0 0.2,0.9 1.1,1.5 2,1.4 0.2,0 0.3,0 0.5,-0.1 v 0 c 0.1,0 0.1,0 0.1,-0.1 0,-0.1 0.3,0 0.4,0 0.4,-0.1 0.8,-0.3 1.1,-0.4 0.2,-0.1 0.4,-0.2 0.6,-0.2 h 0.1 c 1.1,-0.4 2.1,-0.7 3.3,-0.9 h 0.1 c 0.3,0 0.6,0.1 0.8,0.3 0.1,0 0.1,0.1 0.1,0.1 v 0 l 0.9,-0.1 c 1.5,4.6 4.3,8.7 8.2,11.7 0.9,0.7 1.7,1.3 2.7,1.8 l -0.5,0.7 v 0 c 0,0.1 0.1,0.1 0.1,0.1 0.2,0.3 0.2,0.7 0.1,1 -0.4,1 -1,2 -1.6,2.9 v 0.1 c -0.1,0.2 -0.2,0.3 -0.4,0.5 -0.2,0.2 -0.4,0.6 -0.7,1 -0.1,0.1 -0.1,0.2 -0.2,0.3 0,0 0,0.1 -0.1,0.1 v 0 c -0.5,1 -0.1,2.2 0.8,2.7 0.2,0.1 0.5,0.2 0.7,0.2 0.8,0 1.5,-0.5 1.9,-1.2 v 0 c 0,0 0,-0.1 0.1,-0.1 0,-0.1 0.1,-0.2 0.2,-0.3 0.1,-0.4 0.3,-0.7 0.4,-1.1 l 0.2,-0.6 v 0 c 0.3,-1.1 0.8,-2.1 1.3,-3.1 0.2,-0.3 0.5,-0.5 0.8,-0.6 0.1,0 0.1,0 0.1,-0.1 v 0 l 0.4,-0.8 c 2.8,1.1 5.7,1.6 8.7,1.6 1.8,0 3.6,-0.2 5.4,-0.7 1.1,-0.2 2.2,-0.6 3.2,-0.9 l 0.4,0.7 v 0 c 0.1,0 0.1,0 0.1,0.1 0.3,0.1 0.6,0.3 0.8,0.6 0.5,1 1,2 1.3,3.1 v 0.1 l 0.2,0.6 c 0.1,0.4 0.2,0.8 0.4,1.1 0.1,0.1 0.1,0.2 0.2,0.3 0,0 0,0.1 0.1,0.1 v 0 c 0.4,0.7 1.1,1.2 1.9,1.2 0.3,0 0.5,-0.1 0.8,-0.2 0.4,-0.2 0.8,-0.6 0.9,-1.1 0.1,-0.5 0.1,-1 -0.1,-1.5 v 0 c 0,-0.1 -0.1,-0.1 -0.1,-0.1 0,-0.1 -0.1,-0.2 -0.2,-0.3 -0.2,-0.4 -0.4,-0.7 -0.7,-1 -0.1,-0.2 -0.2,-0.3 -0.4,-0.5 v -0.2 c -0.7,-0.9 -1.2,-1.9 -1.6,-2.9 -0.1,-0.3 -0.1,-0.7 0.1,-1 0,-0.1 0.1,-0.1 0.1,-0.1 v 0 l -0.3,-0.8 c 5.1,-3.1 9,-7.9 10.8,-13.6 l 0.8,0.1 v 0 c 0.1,0 0.1,-0.1 0.1,-0.1 0.2,-0.2 0.5,-0.3 0.8,-0.3 h 0.1 c 1.1,0.2 2.2,0.5 3.2,0.9 h 0.1 c 0.2,0.1 0.4,0.2 0.6,0.2 0.4,0.2 0.7,0.4 1.1,0.5 0.1,0 0.2,0.1 0.4,0.1 0.1,0 0.1,0 0.2,0.1 v 0 c 0.2,0.1 0.3,0.1 0.5,0.1 0.9,0 1.7,-0.6 2,-1.4 -0.1,-1.1 -0.9,-1.9 -1.8,-2.1 z m -28.9,-3.1 -2.7,1.3 -2.7,-1.3 -0.7,-2.9 1.9,-2.4 h 3 l 1.9,2.4 z m 16.3,-6.5 c 0.5,2.1 0.6,4.2 0.4,6.3 l -9.5,-2.7 v 0 c -0.9,-0.2 -1.4,-1.1 -1.2,-2 0.1,-0.3 0.2,-0.5 0.4,-0.7 l 7.5,-6.8 c 1.1,1.8 1.9,3.8 2.4,5.9 z m -5.4,-9.6 -8.2,5.8 c -0.7,0.4 -1.7,0.3 -2.2,-0.4 -0.2,-0.2 -0.3,-0.4 -0.3,-0.7 l -0.6,-10.1 c 4.4,0.5 8.3,2.4 11.3,5.4 z m -18.1,-5.1 2,-0.4 -0.5,10 v 0 c 0,0.9 -0.8,1.6 -1.7,1.6 -0.3,0 -0.5,-0.1 -0.8,-0.2 l -8.3,-5.9 c 2.6,-2.5 5.8,-4.3 9.3,-5.1 z m -12.2,8.8 7.4,6.6 v 0 c 0.7,0.6 0.8,1.6 0.2,2.3 -0.2,0.3 -0.4,0.4 -0.8,0.5 l -9.7,2.8 c -0.3,-4.2 0.7,-8.5 2.9,-12.2 z m -1.7,16.9 9.9,-1.7 c 0.8,0 1.6,0.5 1.7,1.3 0.1,0.3 0.1,0.7 -0.1,1 v 0 l -3.8,9.2 c -3.5,-2.3 -6.3,-5.8 -7.7,-9.8 z m 22.7,12.4 c -1.4,0.3 -2.8,0.5 -4.3,0.5 -2.1,0 -4.3,-0.4 -6.3,-1 l 4.9,-8.9 c 0.5,-0.6 1.3,-0.8 2,-0.4 0.3,0.2 0.5,0.4 0.8,0.7 v 0 l 4.8,8.7 c -0.6,0.1 -1.2,0.2 -1.9,0.4 z m 12.2,-8.7 c -1.5,2.4 -3.6,4.5 -6,6 l -3.9,-9.4 c -0.2,-0.8 0.2,-1.6 0.9,-1.9 0.3,-0.1 0.6,-0.2 0.9,-0.2 l 10,1.7 c -0.5,1.4 -1.1,2.7 -1.9,3.8 z"
       id="path10351"
       style="fill:#ffffff" /></g><path
     fill="#e75225"
     d="m 467.05768,58.308838 c 48.39772,0.0101 88.12283,39.235614 88.06217,86.953922 -0.0618,48.44334 -39.62429,87.12461 -89.07417,87.08989 -48.3446,-0.0339 -87.43212,-39.30004 -87.39825,-87.79734 0.0331,-47.422948 39.8414,-86.256512 88.41025,-86.246472 z m -26.75295,30.540804 c 1.10949,5.4295 0.0317,10.49335 -1.60902,15.474358 -1.13627,3.44897 -2.7068,6.77035 -3.64436,10.26617 -1.54541,5.76042 -3.29876,11.55473 -3.9418,17.4461 -0.92458,8.47182 2.42441,15.93371 8.15512,23.35376 l -26.34255,-5.51358 c 0.0461,0.82752 -0.004,1.14087 0.0879,1.40611 2.4968,7.29204 6.89085,13.43568 11.81579,19.22664 0.52127,0.6129 1.70777,0.92751 2.58632,0.92917 26.26555,0.0482 52.53156,0.0456 78.79713,0.0121 0.81497,-8.4e-4 1.90187,-0.15439 2.40181,-0.67691 5.62947,-5.88342 9.93442,-12.5839 12.62574,-21.02558 l -27.88715,5.42865 c 1.83953,-3.58411 3.9397,-6.73562 5.1467,-10.19841 4.12878,-11.84589 2.41771,-23.29854 -3.50881,-34.10022 -4.75593,-8.66844 -9.14287,-17.298818 -6.77033,-27.745732 -5.02245,4.930814 -6.95109,11.207914 -8.17521,17.677032 -1.20572,6.37165 -1.91609,12.837 -2.84947,19.30153 -0.13272,-0.19538 -0.30456,-0.3393 -0.33135,-0.50705 -0.10787,-0.67816 -0.20875,-1.36177 -0.24558,-2.04705 -0.56686,-10.58873 -2.64736,-20.790888 -7.03808,-30.534948 -2.58465,-5.735744 -5.43452,-11.599914 -2.77039,-18.441794 -1.80315,0.94507 -3.43266,1.88472 -4.60072,3.22598 -3.48621,4.0033 -4.92787,8.81153 -5.29898,14.075784 -0.3167,4.49738 -0.75137,9.01652 -1.59019,13.43902 -0.88147,4.647578 -2.27924,9.203118 -5.4203,13.474998 -1.26887,-9.12449 -1.40987,-18.148548 -9.59217,-23.945778 z m 67.7231,90.584888 h -82.38124 v 14.22721 h 82.38124 z m -66.04715,21.57698 c -0.0683,11.84675 12.07015,20.67292 27.07175,20.0324 12.43202,-0.53089 23.43494,-10.25402 22.48902,-20.0324 z"
     id="path299"
     style="stroke-width:0.418361" /><metadata
     id="metadata314"><rdf:RDF><cc:Work
         rdf:about=""><dc:title>robot</dc:title></cc:Work></rdf:RDF></metadata><path
     fill="url(#a)"
     fill-rule="evenodd"
     d="m 261.06226,83.805412 v 1.847951 m 48.79041,58.102407 1.608,-0.43204 0.19206,1.24793 c 0.91193,5.73592 0.50398,10.70357 -1.82413,15.76751 3.60011,0.50398 6.74387,2.23182 8.39977,5.90393 1.17596,2.59189 2.30405,5.61581 2.32814,8.49554 0,2.13606 -0.672,4.27211 -2.35195,5.66396 a 5.5802352,5.5802352 0 0 1 -3.5279,1.272 h -18.7917 c -1.07994,2.95197 -3.21599,5.66371 -6.33596,6.47988 a 14.498713,14.498713 0 0 1 -2.66386,0.35979 c -0.96007,0.0482 -1.89582,0.0722 -2.83183,0.0722 -2.42391,0.0239 -4.8478,0 -7.27197,0 q -5.68778,-0.0722 -11.37555,-0.21613 a 6.0612163,6.0612163 0 0 1 -5.35178,-3.48002 6.0403506,6.0403506 0 0 1 -5.32796,3.48002 c -3.81576,0.0961 -7.6077,0.16799 -11.39964,0.21587 -2.42363,0.024 -4.8478,0.0482 -7.2717,0 -0.93601,0 -1.87202,-0.024 -2.83185,-0.0718 a 12.70694,12.70694 0 0 1 -2.68792,-0.35979 c -3.11995,-0.8159 -5.23193,-3.55198 -6.33594,-6.47987 h -18.62317 a 5.5802352,5.5802352 0 0 1 -3.5279,-1.272 c -1.67997,-1.39185 -2.35195,-3.52791 -2.35195,-5.66396 0,-2.87973 1.15216,-5.90393 2.30405,-8.49555 a 9.667236,9.667236 0 0 1 2.78397,-3.59987 11.339969,11.339969 0 0 1 5.44781,-2.30406 c -2.32811,-5.06393 -2.73608,-10.03158 -1.82413,-15.7675 l 0.19206,-1.24794 1.80006,0.47993 a 25.466846,25.466846 0 0 1 0.86407,-3.216 20.886023,20.886023 0 0 1 6.64759,-9.67151 17.362664,17.362664 0 0 1 3.62395,-2.23211 64.180195,64.180195 0 0 1 1.36804,-10.22366 46.585869,46.585869 0 0 1 3.98375,-13.15153 18.204781,18.204781 0 0 1 -2.44772,-3.86391 c -0.0963,-0.21587 -0.19206,-0.43201 -0.26403,-0.64791 A 56.037227,56.037227 0 0 1 208.26401,87.309343 c -2.6403,-3.239541 -6.50393,-8.279401 -6.84019,-12.527441 -0.16773,-1.48789 -0.21587,-2.97603 -0.23968,-4.43985 a 79.430342,79.430342 0 0 1 0.57594,-10.67976 c 0.23995,-2.06383 0.57595,-4.12765 0.98389,-6.16769 a 57.288364,57.288364 0 0 1 -7.12776,-10.27179 51.995702,51.995702 0 0 1 -5.95182,-18.599359 50.807962,50.807962 0 0 1 1.46409,-19.2954299 7.2724965,7.2724965 0 0 1 7.00765,-5.327970047283 c 12.28749,0 22.8953,5.015800047283 32.75915,11.495658947283 a 57.788071,57.788071 0 0 1 60.3821,0 C 301.11689,5.0161231 311.7247,5.3052717e-5 324.01244,5.3052717e-5 A 7.1962564,7.1962564 0 0 1 330.99602,5.3521031 a 51.35796,51.35796 0 0 1 1.44001,19.2954199 51.995702,51.995702 0 0 1 -5.95181,18.599359 57.164775,57.164775 0 0 1 -7.1037,10.27153 c 0.38387,1.944 0.69579,3.88798 0.95983,5.87985 a 78.417554,78.417554 0 0 1 0.60002,10.87157 c -0.024,1.51223 -0.0722,3.02418 -0.23995,4.48799 -0.38388,4.36787 -4.12767,9.26383 -6.83993,12.575591 A 56.428056,56.428056 0 0 1 297.94905,100.8212 l -0.28784,0.64792 a 33.229953,33.229953 0 0 1 -1.70402,3.14376 14.856909,14.856909 0 0 1 -1.96806,2.56808 37.6706,37.6706 0 0 1 1.34395,3.57579 49.015386,49.015386 0 0 1 1.84795,7.89579 c 0.28812,1.36805 0.55215,2.75988 0.74394,4.12766 5.4481,-9.11938 12.69598,-17.35116 21.81536,-22.41509 5.35205,-2.975777 11.4237,-4.871877 17.59138,-4.703877 6.55208,0.16799 12.98382,3.216 17.95172,7.391797 5.44783,4.58377 9.88766,11.13558 10.6316,18.35939 a 10.454247,10.454247 0 0 1 -0.23995,3.55201 c -0.936,3.8639 -3.91178,6.88781 -7.43968,8.54369 -4.51208,2.11198 -10.15197,2.04002 -13.94364,-1.53603 -2.13605,-2.03976 -2.80805,-4.27185 -3.88799,-6.88781 -0.64789,-1.53579 -1.31988,-2.71176 -2.68792,-3.7438 a 9.3997271,9.3997271 0 0 0 -6.33568,-1.89584 c -3.24007,0.21587 -6.1198,2.06383 -8.39978,4.27186 a 43.490258,43.490258 0 0 0 -3.59987,3.98374 67.760803,67.760803 0 0 0 -5.83168,8.44792 54.545595,54.545595 0 0 0 -3.55199,6.98359 3.1258413,3.1258413 0 0 1 -0.19207,0.40797 0.89026955,0.89026955 0 0 0 0.0482,0.21614 z m 4.96791,-20.4476 a 2.0571432,2.0571432 0 0 1 0.86405,0.16801 c 1.10374,-1.29584 2.25588,-2.56784 3.45567,-3.74379 0.38414,-0.36008 0.76802,-0.71988 1.12809,-1.03207 a 11.616573,11.616573 0 0 1 -3.59987,-3.95966 12.651298,12.651298 0 0 1 -1.55984,-4.36787 56.047925,56.047925 0 0 0 -6.76799,7.05581 c -0.11976,1.65588 1.51198,3.57579 2.64006,4.46364 1.05585,0.83998 2.4477,1.48817 3.83983,1.41593 z m -1.70404,3.43214 a 10.207604,10.207604 0 0 1 -4.31973,-2.01594 11.740162,11.740162 0 0 1 -3.14404,-3.74406 77.872905,77.872905 0 0 0 -5.75973,9.62364 16.485503,16.485503 0 0 1 1.75191,1.22412 18.504392,18.504392 0 0 1 4.79991,5.75974 74.858616,74.858616 0 0 1 6.67168,-10.8475 z m 29.327,-9.31199 a 1.400409,1.400409 0 0 1 -0.14392,0.6241 c 3.64802,3.57607 3.48002,7.75189 5.76,9.91176 4.00782,3.81602 12.9116,-0.47991 12.35945,-5.9759 -0.50398,-4.77583 -3.26361,-9.52759 -7.10369,-13.27164 -0.024,-0.024 -0.0482,-0.0479 -0.0718,-0.0479 a 2.8842808,2.8842808 0 0 0 -2.04003,-0.76775 c -4.8478,-0.21614 -8.59158,4.87161 -8.75957,9.52759 z m -3.40781,-1.75191 a 14.396525,14.396525 0 0 1 1.03207,-3.50383 c 1.55983,-3.55171 4.48773,-6.45578 8.06379,-7.48757 -3.45596,-2.11197 -7.27171,-3.40806 -10.9438,-3.5041 a 20.438213,20.438213 0 0 0 -3.19192,0.14425 c -0.336,0.23997 -0.6479,0.47992 -0.8159,0.62384 a 5.7380655,5.7380655 0 0 0 -0.55188,0.52805 c -2.42389,2.73582 -2.13605,8.01564 -0.0482,10.8475 a 1.9747505,1.9747505 0 0 1 0.28809,0.6 14.91576,14.91576 0 0 1 6.16768,1.7522 z m -10.15169,-1.46381 a 13.720798,13.720798 0 0 1 -1.55984,-6.14388 12.969098,12.969098 0 0 1 1.05586,-5.54384 34.768664,34.768664 0 0 0 -5.95179,2.64004 c -1.12782,0.62383 -2.25592,1.34396 -3.38401,2.11198 0,0.024 -0.0239,0.024 -0.0239,0.0479 -1.03205,1.51195 -0.0482,4.19989 0.76775,5.61581 0.74423,1.272 1.8961,2.59216 3.24006,3.16783 a 1.3062459,1.3062459 0 0 1 0.43204,0.26404 17.672708,17.672708 0 0 1 5.42373,-2.15987 z M 255.80625,15.575403 a 1.7040316,1.7040316 0 1 1 -1.70404,1.70404 1.6802232,1.6802232 0 0 1 1.70404,-1.70404 z m 0,7.51165 a 1.7040316,1.7040316 0 1 1 -1.70404,1.70403 1.7104518,1.7104518 0 0 1 1.70404,-1.70403 z m 10.53582,-7.51165 a 1.7040316,1.7040316 0 1 1 -1.70403,1.70404 1.7104518,1.7104518 0 0 1 1.70403,-1.70404 z m 0,7.51165 a 1.7040316,1.7040316 0 1 1 -1.70403,1.70403 1.7104518,1.7104518 0 0 1 1.70403,-1.70403 z M 262.50225,9.9833921 V 30.358743 c 10.89565,0.24022 21.5992,3.264149 28.1751,9.047949 7.58389,6.69576 12.64756,18.28746 12.09569,24.38317 -0.48018,5.47189 -9.21568,9.16753 -20.85553,11.0877 a 10.586931,10.586931 0 0 1 1.20006,3.35992 15.29054,15.29054 0 0 1 -0.024,5.01579 c 4.39195,-0.50399 8.35161,-1.17597 11.87979,-1.91991 a 116.19355,116.19355 0 0 0 18.35915,-5.51977 6.5767059,6.5767059 0 0 0 0.40821,-1.67997 c 0,0 2.51993,-22.94343 -10.48769,-41.734859 C 293.19738,17.879173 277.90978,10.415412 262.50234,9.9833921 Z M 259.64632,30.358743 V 9.9836621 c -15.67173,0.4560999 -31.19902,8.1598209 -41.18299,23.0873499 -12.47929,18.67159 -10.03157,41.0867 -10.03157,41.0867 a 7.3594369,7.3594369 0 0 0 0.47991,1.72811 117.76463,117.76463 0 0 0 18.26363,5.47188 129.13884,129.13884 0 0 0 11.9036,1.91992 15.289738,15.289738 0 0 1 -0.024,-5.01579 10.586931,10.586931 0 0 1 1.20006,-3.35992 c -11.63959,-1.92018 -20.37535,-5.6399 -20.85553,-11.0877 -0.55186,-6.096 4.51207,-17.68769 12.09569,-24.38344 6.55181,-5.80761 17.25565,-8.831529 28.15128,-9.071749 z m -19.6314,55.89437 a 128.80285,128.80285 0 0 1 -13.41556,-2.111981 117.74885,117.74885 0 0 1 -15.69555,-4.48774 40.730368,40.730368 0 0 0 2.56807,3.50383 c 6.31161,7.727801 14.25556,12.983561 23.78315,16.271498 a 74.467785,74.467785 0 0 0 9.28763,2.49587 c 0,-0.024 -0.024,-0.0718 -0.024,-0.0957 a 5.137508,5.137508 0 0 1 -0.26403,-2.616257 c 0.38415,-2.20774 2.04004,-3.59959 4.17583,-4.48772 -4.03164,-1.36805 -7.65559,-3.64774 -9.76757,-7.2717 a 6.5876736,6.5876736 0 0 1 -0.6479,-1.20003 z m 10.22365,14.159517 c 0.45585,1.17596 1.9678,2.08817 3.8639,2.71201 2.30378,0.26403 4.63166,0.4799 6.95979,0.62409 2.35192,-0.14425 4.70386,-0.33599 7.00766,-0.62409 1.77598,-0.57595 3.21599,-1.39185 3.76786,-2.47179 2.40009,-4.655997 -23.23127,-4.535867 -21.59921,-0.24022 z M 311.2207,79.677482 a 119.43469,119.43469 0 0 1 -15.64766,4.46365 129.83597,129.83597 0 0 1 -13.41557,2.111981 17.997999,17.997999 0 0 1 -0.60003,1.17597 c -2.11171,3.59988 -5.71158,5.90392 -9.74347,7.27196 2.08791,0.88786 3.69591,2.25591 4.10357,4.3917 a 5.0797262,5.0797262 0 0 1 -0.26376,2.808037 c 7.7516,-1.56012 15.04738,-4.175817 21.52725,-8.399767 4.67979,-3.04801 8.49581,-7.03175 12.07161,-11.327671 0.69605,-0.79182 1.34397,-1.65589 1.96806,-2.49586 z m -51.1905,7.463491 c -1.07993,1.89611 -3.31176,4.72796 -8.01563,3.76814 -5.78382,-1.87203 -9.93582,-5.76001 -8.90377,-11.975841 0.93601,-5.61581 10.27154,-9.11938 17.92737,-9.04769 h 0.0722 c 7.65556,-0.0721 16.99135,3.43214 17.90329,9.04769 0.88813,5.375861 -2.08791,9.023871 -6.67167,11.111791 -6.79205,2.51992 -9.1678,-0.76776 -10.22393,-2.85593 -0.50398,-1.00797 -0.71985,-1.53603 -0.98388,-1.55985 h -0.0722 c -0.21587,0.0957 -0.4799,0.57595 -1.03178,1.51195 z m 1.03206,-14.639421 c -4.63193,0 -10.24775,1.34397 -10.79988,4.22396 -0.91193,4.77585 6.16795,7.07964 10.79988,7.07964 h 0.0961 c 4.63164,-0.024 11.6393,-2.32787 10.72764,-7.07964 -0.55214,-2.87999 -6.16796,-4.22396 -10.79988,-4.22396 z m -12.9116,-9.3596 a 1.7281073,1.7281073 0 0 1 -3.45621,0 7.7427771,7.7427771 0 0 0 -1.8236,-5.08802 5.556427,5.556427 0 0 0 -4.15173,-1.99187 5.2108056,5.2108056 0 0 0 -2.97604,0.93602 6.6080044,6.6080044 0 0 0 -2.25619,2.712 1.7123079,1.7123079 0 0 1 -3.09586,-1.46408 10.450502,10.450502 0 0 1 3.43213,-4.10385 8.6565875,8.6565875 0 0 1 4.91948,-1.53602 8.8507989,8.8507989 0 0 1 6.71982,3.16809 11.317231,11.317231 0 0 1 2.6882,7.36773 z m 25.84726,0 a 1.7281073,1.7281073 0 0 0 3.45568,0 7.7427771,7.7427771 0 0 1 1.82414,-5.08802 5.5176382,5.5176382 0 0 1 4.15173,-1.99187 5.2108056,5.2108056 0 0 1 2.97604,0.93602 6.6080044,6.6080044 0 0 1 2.2559,2.712 1.7232922,1.7232922 0 0 0 3.11996,-1.46408 10.450502,10.450502 0 0 0 -3.43214,-4.10385 8.6565875,8.6565875 0 0 0 -4.9195,-1.53602 8.8507989,8.8507989 0 0 0 -6.71981,3.16809 11.209692,11.209692 0 0 0 -2.712,7.36773 z m 1.39183,45.934478 a 46.976164,46.976164 0 0 1 -11.32765,2.13605 47.7918,47.7918 0 0 1 -25.51126,-5.63987 c -1.51195,-0.43203 -2.97577,-0.93602 -4.43983,-1.46409 a 29.421696,29.421696 0 0 0 14.32777,10.36785 c -5.83196,-0.98416 -11.73562,-2.78397 -16.29558,-5.95207 -2.95196,6.3841 -4.75202,15.26378 -3.31202,27.38328 q 0.50398,4.13998 1.29608,7.84791 c 7.67964,-3.48002 13.0555,-2.0879 19.72718,2.35194 0.76801,-10.53584 2.97603,-18.45544 4.03189,-21.69551 0.4561,-1.36778 1.05613,-2.03976 1.87202,-2.11173 0.86406,-0.0722 2.32787,-0.024 2.27997,2.51996 -0.26403,1.03178 -0.4799,2.2559 -0.6479,3.14376 -0.45611,2.35194 -0.81589,4.75176 -1.17596,7.12777 -0.336,2.35194 -0.67198,4.70389 -0.96009,7.0799 -0.19209,1.51195 -0.38388,3.07179 -0.50399,4.60782 -0.0482,0.86406 -0.0961,1.72812 -0.12,2.5919 a 43.381915,43.381915 0 0 0 10.87155,-0.0722 c -0.0239,-0.83998 -0.0717,-1.70376 -0.11977,-2.54374 -0.26402,-3.79193 -0.83998,-7.77567 -1.39185,-11.54353 -0.33599,-2.25592 -0.69605,-4.53589 -1.12809,-6.76799 -0.26403,-1.272 -0.55187,-2.87973 -1.00797,-4.10359 0.0722,-2.51994 3.3599,-3.07207 4.27212,-0.2881 1.00771,3.02392 3.40779,11.20755 4.1758,22.31934 6.02377,-3.45622 13.99152,-6.02405 19.75128,-2.80805 0.50398,-2.4239 0.91219,-4.96763 1.24791,-7.65583 1.34397,-11.20755 -0.0961,-19.65521 -2.66385,-25.89514 -4.60785,2.71201 -10.46362,4.15173 -16.1035,4.87188 a 29.405915,29.405915 0 0 0 15.57544,-10.77579 c -1.46382,0.52805 -2.9517,1.03204 -4.43986,1.46408 a 45.205523,45.205523 0 0 1 -8.27966,3.50382 z M 208.38386,8.6396931 c 6.07165,1.6320789 11.78377,4.5840299 17.20753,8.0159099 a 56.430998,56.430998 0 0 0 -6.21584,5.80761 c -1.03206,-1.70402 -2.16014,-3.35991 -3.33585,-4.99171 a 58.897966,58.897966 0 0 0 -7.6561,-8.8318099 z m -10.1038,-1.41593 h 0.57595 c 6.81612,3.7440589 12.91157,11.3517499 17.39958,18.9115599 -0.91221,1.17595 -1.80008,2.39982 -2.66386,3.64774 a 63.021614,63.021614 0 0 0 -7.6561,16.079689 c -5.4957,-7.39181 -12.47929,-20.975369 -7.84765,-38.4947789 0.0722,-0.024 0.12001,-0.0964 0.19208,-0.14425 z m 125.58819,0 H 323.2923 C 316.47646,10.967822 310.38073,18.575513 305.89273,26.135323 a 43.547235,43.547235 0 0 1 2.13605,2.92788 62.748757,62.748757 0 0 1 8.15984,16.823629 c 5.49568,-7.39181 12.47927,-20.975379 7.84764,-38.4950589 z m -10.1038,1.41593 c -6.07164,1.6317989 -11.80759,4.5840299 -17.20725,8.0159099 a 56.678443,56.678443 0 0 1 6.21584,5.83168 c 1.05585,-1.70401 2.15986,-3.38398 3.33584,-5.01578 a 58.897431,58.897431 0 0 1 7.65583,-8.8318099 z M 231.32703,148.98742 a 85.112499,85.112499 0 0 0 6.93597,17.95146 c 0.40796,0.76801 0.69581,0.98416 1.46382,1.44001 2.37601,1.43998 5.71183,2.99983 6.28779,8.92782 -2.71175,-3.45593 -5.30391,-5.92799 -9.28791,-6.79203 -1.94372,-0.0239 -4.15173,0.36032 -5.68751,1.94425 -3.28794,3.4078 -0.91219,9.28764 1.07994,9.8157 1.99214,0.52807 22.43917,0 22.43917,0 0,0 0.83998,-3.81601 -0.74366,-5.92799 -1.56012,-2.13579 -3.98401,-13.00761 -4.15201,-24.57524 -4.79991,-4.1999 -12.2158,-7.03175 -18.3356,-2.78398 z m 57.43041,0 a 86.676088,86.676088 0 0 1 -6.91189,17.95146 c -0.43202,0.76801 -0.71986,0.98416 -1.4638,1.44001 -2.37601,1.43998 -5.71186,2.99983 -6.28807,8.92782 2.71201,-3.45593 5.30389,-5.92799 9.28792,-6.79203 1.94397,-0.0239 4.1758,0.36032 5.68776,1.94425 3.28768,3.4078 0.91221,9.28764 -1.07994,9.8157 -1.99213,0.52807 -22.43945,0 -22.43945,0 0,0 -0.83997,-3.81601 0.74394,-5.92799 1.56013,-2.13579 4.0081,-13.00761 4.17583,-24.57524 4.75202,-4.1999 12.16791,-7.03175 18.2877,-2.78398 z m -26.85521,25.70333 c -0.60002,0 -1.22413,0.024 -1.84794,0.024 h -1.46409 a 13.157959,13.157959 0 0 0 -0.74367,-1.24792 14.487211,14.487211 0 0 1 -0.76828,-2.16014 56.939265,56.939265 0 0 1 -1.39185,-6.23965 80.275402,80.275402 0 0 1 -1.10402,-11.78376 38.464301,38.464301 0 0 0 11.25571,-0.0961 76.629791,76.629791 0 0 1 -1.41594,13.6558 c -0.31216,1.58365 -1.10399,5.42374 -1.9199,6.83968 a 11.126229,11.126229 0 0 0 -0.60002,1.00797 z m 44.68656,-24.74323 c 0.16799,11.06363 -6.81586,15.43152 -10.89564,18.6954 18.57555,-8.44794 20.71134,5.928 18.79143,7.51165 h -19.22319 a 10.398873,10.398873 0 0 0 -7.99209,-9.79163 73.62647,73.62647 0 0 0 3.74405,-9.55168 c 5.42374,-2.9038 11.80757,-5.87984 15.57544,-6.86374 z m -10.1517,-16.24743 c 4.65598,2.15987 7.58387,7.07964 8.23178,12.59967 -3.76786,1.10375 -7.89579,3.07182 -11.37555,4.79964 a 104.82871,104.82871 0 0 0 2.85593,-14.6156 c 0.11989,-0.88787 0.21589,-1.82387 0.28784,-2.78371 z m -72.7897,0.0957 c -4.58403,2.20803 -7.43995,7.10396 -8.06379,12.5756 3.71998,1.12809 7.7516,3.048 11.18374,4.75202 a 104.82978,104.82978 0 0 1 -2.85592,-14.61561 c -0.0963,-0.88814 -0.19207,-1.79979 -0.26403,-2.71201 z m -10.17577,16.15167 c -0.16799,11.06361 6.81585,15.4315 10.91971,18.69538 -18.59935,-8.44794 -20.71133,5.928 -18.8155,7.51166 h 18.88746 a 10.884134,10.884134 0 0 1 2.97604,-7.12753 11.080753,11.080753 0 0 1 4.87187,-2.90407 73.074598,73.074598 0 0 1 -1.104,-2.39982 q -1.54809,-3.56403 -2.80805,-7.27197 c -5.25574,-2.75987 -11.27952,-5.54358 -14.92753,-6.50365 z"
     id="path329"
     style="fill:url(#a-3);stroke-width:0.267509" /></svg>
